<svg width="18" height="17" viewBox="0 0 18 17" fill="none">
<path d="M13.4531 10.3828C13.5052 10.4349 13.6094 10.5521 13.7656 10.7344C13.9479 10.8906 14.0651 10.9948 14.1172 11.0469C14.1693 11.099 14.2734 11.2161 14.4297 11.3984C14.612 11.5807 14.7161 11.7109 14.7422 11.7891C14.7943 11.8411 14.8984 11.9583 15.0547 12.1406C15.2109 12.3229 15.2891 12.4531 15.2891 12.5312C15.3151 12.6094 15.3802 12.7526 15.4844 12.9609C15.6146 13.1693 15.6536 13.3255 15.6016 13.4297C15.5755 13.5078 15.5885 13.6641 15.6406 13.8984C15.7188 14.1068 15.7188 14.263 15.6406 14.3672C15.3542 15.4609 14.7031 16.112 13.6875 16.3203C13.5052 16.3464 12.8672 16.2943 11.7734 16.1641C10.7057 16.0339 9.80729 15.9688 9.07812 15.9688H8.92188C8.19271 15.9688 7.28125 16.0339 6.1875 16.1641C5.11979 16.2943 4.49479 16.3464 4.3125 16.3203C3.29688 16.112 2.64583 15.4609 2.35938 14.3672C2.28125 13.8464 2.3724 13.3125 2.63281 12.7656C2.89323 12.2188 3.1276 11.8281 3.33594 11.5938C3.57031 11.3594 3.97396 10.9557 4.54688 10.3828C4.80729 10.0964 5.14583 9.69271 5.5625 9.17188C6.00521 8.65104 6.35677 8.2474 6.61719 7.96094C7.08594 7.38802 7.56771 7.02344 8.0625 6.86719C8.16667 6.8151 8.25781 6.78906 8.33594 6.78906C8.49219 6.76302 8.71354 6.75 9 6.75C9.3125 6.75 9.53385 6.76302 9.66406 6.78906C9.74219 6.78906 9.83333 6.8151 9.9375 6.86719C10.4323 7.02344 10.9141 7.38802 11.3828 7.96094C11.6172 8.2474 11.9557 8.65104 12.3984 9.17188C12.8411 9.69271 13.1927 10.0964 13.4531 10.3828ZM13.7656 7.41406C13.375 6.9974 13.1797 6.5026 13.1797 5.92969C13.1797 5.35677 13.375 4.86198 13.7656 4.44531C14.1823 4.02865 14.6771 3.82031 15.25 3.82031C15.8229 3.82031 16.3047 4.02865 16.6953 4.44531C17.112 4.86198 17.3203 5.35677 17.3203 5.92969C17.3203 6.5026 17.112 6.9974 16.6953 7.41406C16.3047 7.80469 15.8229 8 15.25 8C14.6771 8 14.1823 7.80469 13.7656 7.41406ZM10.0156 4.05469C9.625 3.63802 9.42969 3.14323 9.42969 2.57031C9.42969 1.9974 9.625 1.51562 10.0156 1.125C10.4323 0.708333 10.9271 0.5 11.5 0.5C12.0729 0.5 12.5547 0.708333 12.9453 1.125C13.362 1.51562 13.5703 1.9974 13.5703 2.57031C13.5703 3.14323 13.362 3.63802 12.9453 4.05469C12.5547 4.47135 12.0729 4.67969 11.5 4.67969C10.9271 4.67969 10.4323 4.47135 10.0156 4.05469ZM5.01562 4.05469C4.625 3.63802 4.42969 3.14323 4.42969 2.57031C4.42969 1.9974 4.625 1.51562 5.01562 1.125C5.43229 0.708333 5.92708 0.5 6.5 0.5C7.07292 0.5 7.55469 0.708333 7.94531 1.125C8.36198 1.51562 8.57031 1.9974 8.57031 2.57031C8.57031 3.14323 8.36198 3.63802 7.94531 4.05469C7.55469 4.47135 7.07292 4.67969 6.5 4.67969C5.92708 4.67969 5.43229 4.47135 5.01562 4.05469ZM1.26562 7.41406C0.875 6.9974 0.679688 6.5026 0.679688 5.92969C0.679688 5.35677 0.875 4.86198 1.26562 4.44531C1.68229 4.02865 2.17708 3.82031 2.75 3.82031C3.32292 3.82031 3.80469 4.02865 4.19531 4.44531C4.61198 4.86198 4.82031 5.35677 4.82031 5.92969C4.82031 6.5026 4.61198 6.9974 4.19531 7.41406C3.80469 7.80469 3.32292 8 2.75 8C2.17708 8 1.68229 7.80469 1.26562 7.41406Z" fill="#36D6AD"/>
</svg>
